<svg width="382" height="162" viewBox="0 0 382 162" fill="none" xmlns="http://www.w3.org/2000/svg">
<mask id="mask0_4646_85" style="mask-type:luminance" maskUnits="userSpaceOnUse" x="0" y="0" width="382" height="162">
<path d="M382 7.62939e-06H0V161.176H382V7.62939e-06Z" fill="white"/>
</mask>
<g mask="url(#mask0_4646_85)">
<path d="M89.4388 28.6405C86.6414 27.2811 83.0727 26.6013 78.8375 26.6013H66.7852C63.5695 26.6013 61.0074 25.7124 59.1643 23.9869L59.0728 23.8954C57.2819 22 56.4192 19.8824 56.4192 17.3987C56.4192 14.915 57.3211 12.6275 59.0728 10.7581C60.8505 8.86271 63.2819 7.92158 66.2884 7.92158H95.9486V1.47711H65.1773C61.8309 1.47711 58.9682 2.24835 56.393 3.83005C53.8178 5.33335 51.8834 7.26799 50.4585 9.73857C49.0337 12.2092 48.3409 14.8235 48.3409 17.7647C48.3409 21.2026 49.0729 24.1177 50.537 26.4445C52.1054 28.8105 54.1839 30.5752 56.8897 31.8693C59.7002 33.0588 63.0335 33.6732 66.7721 33.6732H79.4518C81.5826 33.6732 83.478 34.1699 85.0989 35.1373C86.7459 36.0131 87.9616 37.268 88.7721 38.8628C89.5695 40.3529 89.9355 41.8693 89.9355 43.634C89.9355 45.3987 89.5041 47.1895 88.6414 48.8104C87.7786 50.4444 86.4453 51.8169 84.7198 52.8889C83.0858 53.8562 81.112 54.3268 78.8505 54.3268H50.3147V60.7582H80.21C83.7917 60.7582 86.8113 59.9608 89.4518 58.3007C92.1969 56.6405 94.2623 54.549 95.7656 51.9085C97.295 49.1895 98.0139 46.3529 98.0139 43.2679C98.0139 39.6732 97.2558 36.5882 95.7786 34.1438C94.393 31.7386 92.3146 29.9346 89.4518 28.6536H89.4388V28.6405Z" fill="#F5F5F5"/>
<path d="M160.262 4.18302C155.635 1.41178 150.197 1.52588e-05 144.118 1.52588e-05C138.04 1.52588e-05 132.615 1.41178 127.962 4.19609C123.321 6.8889 119.583 10.6536 116.864 15.3856C114.145 20.0131 112.772 25.3072 112.772 31.1111C112.772 36.915 114.145 42.2745 116.864 46.9673C119.583 51.6078 123.321 55.3726 127.962 58.1569C132.393 60.7451 137.583 62.1177 143.347 62.2222H144.118C150.197 62.2353 155.622 60.8889 160.262 58.1699C164.994 55.3856 168.733 51.6209 171.373 46.9935C174.092 42.2745 175.465 36.9412 175.465 31.1111C175.465 25.2811 174.092 19.8562 171.373 15.2288C168.733 10.6013 164.994 6.87583 160.262 4.16995V4.18302ZM167.269 31.1242C167.269 35.7124 166.301 39.9216 164.367 43.6471C162.445 47.3203 159.726 50.2876 156.301 52.4706C152.89 54.6405 148.668 55.7909 144.105 55.7909C139.543 55.7909 135.439 54.6797 131.909 52.4706C128.485 50.2876 125.766 47.3072 123.831 43.634C121.922 39.9085 120.929 35.6994 120.929 31.1242C120.929 26.549 121.896 22.3791 123.831 18.732C125.752 14.9673 128.485 11.9477 131.922 9.76472C135.452 7.56864 139.556 6.45753 144.105 6.45753C148.654 6.45753 152.837 7.56864 156.301 9.77779C159.739 11.9739 162.458 14.9804 164.38 18.719C166.288 22.3791 167.282 26.549 167.282 31.1242H167.269Z" fill="#F5F5F5"/>
<path d="M235.269 3.3595C231.178 1.15035 226.354 0.0130997 220.916 0.0130997C215.478 0.0130997 210.72 1.15035 206.537 3.38565C202.341 5.5425 199.126 8.52289 196.72 12.4445C194.42 16.3399 193.256 20.9673 193.256 26.2092V60.7582H201.322V26.3268C201.322 22.2745 202.237 18.719 204.027 15.7778C205.884 12.7713 208.328 10.4314 211.295 8.81047C214.315 7.2157 217.544 6.41831 220.916 6.41831C224.289 6.41831 227.492 7.2157 230.42 8.81047C233.452 10.4183 235.897 12.7582 237.714 15.7909C239.583 18.732 240.524 22.2614 240.524 26.3137V59.9216L241.4 60.7451H248.603V26.1961C248.603 20.9673 247.387 16.3268 245.021 12.4314C242.694 8.48367 239.505 5.52943 235.295 3.33336H235.282L235.269 3.3595Z" fill="#F5F5F5"/>
<path d="M277.975 1.47711H269.792V60.7582H277.975V1.47711Z" fill="#F5F5F5"/>
<path d="M315.374 11.0849C318.969 8.99342 323.047 7.92158 327.518 7.92158H333.635V1.47711H327.884C321.714 1.47711 316.132 2.81045 311.322 5.45099C306.511 8.06537 302.655 11.6863 299.858 16.1699C297.073 20.549 295.674 25.5686 295.674 31.1242C295.674 36.6797 297.073 41.7386 299.858 46.196C302.655 50.6013 306.524 54.1569 311.322 56.7843C315.531 59.0719 320.315 60.4052 325.57 60.6797L325.531 60.7582H333.635V54.3137H327.518C323.073 54.3137 318.969 53.281 315.361 51.2679C311.871 49.1633 309.008 46.3268 306.903 42.8366C304.89 39.3203 303.858 35.3856 303.858 31.1111C303.858 26.8366 304.89 22.8758 306.916 19.3725C309.008 15.8954 311.857 13.098 315.374 11.0849Z" fill="#F5F5F5"/>
<path d="M28.3402 161.072C22.8369 161.072 17.9481 159.922 13.6997 157.621C9.45133 155.32 6.10492 152.039 3.66049 147.791C1.21605 143.464 0.000366211 138.34 0.000366211 132.418V86.6144H12.4448V133.255C12.4448 136.327 13.0722 139.15 14.3271 141.725C15.6474 144.235 17.5036 146.261 19.8696 147.791C22.3141 149.32 25.1637 150.091 28.4448 150.091C31.7258 150.091 34.4448 149.32 36.8108 147.791C39.2552 146.261 41.0984 144.235 42.3533 141.725C43.6082 139.15 44.2356 136.327 44.2356 133.255V86.6144H56.7846V133.255C56.7846 136.327 57.4121 139.15 58.667 141.725C59.9872 144.235 61.8434 146.261 64.2094 147.791C66.5754 149.32 69.399 150.091 72.68 150.091C75.9611 150.091 78.7846 149.32 81.1506 147.791C83.5166 146.261 85.3336 144.235 86.5885 141.725C87.9088 139.15 88.5754 136.327 88.5754 133.255V86.6144H101.02V132.418C101.02 138.34 99.8042 143.464 97.3598 147.791C94.9153 152.039 91.5689 155.32 87.3205 157.621C83.0722 159.922 78.1833 161.072 72.68 161.072C69.6081 161.072 66.6539 160.654 63.7911 159.817C61.0068 158.98 58.497 157.686 56.2617 155.948C54.0264 154.209 52.1179 152.118 50.5101 149.673C48.9807 152.118 47.0592 154.209 44.7585 155.948C42.4579 157.621 39.9088 158.915 37.1245 159.817C34.4056 160.654 31.4775 161.072 28.3402 161.072Z" fill="#F5F5F5"/>
<path d="M149.726 161.176C143.935 161.176 138.68 160.196 133.935 158.248C129.268 156.222 125.255 153.477 121.909 149.987C118.628 146.497 116.092 142.457 114.275 137.856C112.458 133.255 111.556 128.34 111.556 123.111C111.556 117.882 112.458 113.007 114.275 108.471C116.092 103.869 118.628 99.83 121.909 96.3399C125.255 92.8497 129.268 90.1307 133.935 88.183C138.68 86.2353 143.935 85.2549 149.726 85.2549C155.517 85.2549 160.85 86.2353 165.517 88.183C170.183 90.1307 174.196 92.8497 177.543 96.3399C180.889 99.83 183.464 103.869 185.281 108.471C187.098 113.007 188 117.882 188 123.111C188 128.34 187.098 133.255 185.281 137.856C183.464 142.457 180.889 146.497 177.543 149.987C174.196 153.477 170.183 156.222 165.517 158.248C160.85 160.196 155.582 161.176 149.726 161.176ZM149.726 150.091C153.425 150.091 156.837 149.425 159.974 148.105C163.111 146.784 165.83 144.902 168.131 142.458C170.497 139.948 172.314 137.059 173.569 133.778C174.824 130.497 175.451 126.941 175.451 123.111C175.451 119.281 174.824 115.725 173.569 112.444C172.314 109.163 170.497 106.34 168.131 103.974C165.83 101.529 163.111 99.647 159.974 98.3268C156.837 96.9281 153.425 96.2353 149.726 96.2353C146.026 96.2353 142.615 96.9281 139.477 98.3268C136.406 99.647 133.687 101.529 131.321 103.974C129.02 106.34 127.203 109.163 125.883 112.444C124.628 115.725 124 119.281 124 123.111C124 126.941 124.628 130.601 125.883 133.882C127.203 137.085 129.02 139.948 131.321 142.458C133.687 144.902 136.406 146.784 139.477 148.105C142.615 149.425 146.026 150.091 149.726 150.091Z" fill="#F5F5F5"/>
<path d="M199.372 159.817V86.6144H231.791C236.457 86.6144 240.719 87.6601 244.549 89.7516C248.457 91.7778 251.555 94.6274 253.856 98.3268C256.157 102.026 257.307 106.314 257.307 111.19C257.307 116.065 256.091 120.392 253.647 124.157C251.281 127.856 248.104 130.706 244.13 132.732L251.346 146.431C251.764 147.203 252.248 147.791 252.81 148.209C253.372 148.562 254.104 148.732 255.006 148.732H261.176V159.817H253.124C250.261 159.817 247.725 159.124 245.49 157.725C243.255 156.261 241.477 154.34 240.157 151.974L231.581 135.556C230.889 135.621 230.157 135.66 229.385 135.66H211.817V159.817H199.372ZM211.817 124.68H230.222C232.876 124.68 235.307 124.157 237.542 123.111C239.778 122.065 241.516 120.536 242.771 118.51C244.091 116.418 244.758 113.974 244.758 111.19C244.758 108.405 244.091 105.895 242.771 103.869C241.451 101.843 239.699 100.314 237.542 99.268C235.385 98.1569 232.98 97.5948 230.327 97.5948H211.817V124.68Z" fill="#F5F5F5"/>
<path d="M290 159.817C285.883 159.817 282.262 158.915 279.124 157.098C276.053 155.216 273.647 152.706 271.909 149.569C270.236 146.431 269.399 142.941 269.399 139.111V86.6144H281.948V140.68C281.948 142.915 282.68 144.824 284.144 146.431C285.673 148.039 287.634 148.837 290 148.837H309.451V159.817H290Z" fill="#F5F5F5"/>
<path d="M319.673 159.817V86.6144H343.726C351.53 86.6144 358.301 88.183 364.013 91.3203C369.726 94.4575 374.157 98.7843 377.294 104.288C380.432 109.791 382 116.105 382 123.216C382 130.327 380.432 136.641 377.294 142.144C374.157 147.647 369.726 151.974 364.013 155.111C358.301 158.248 351.53 159.817 343.726 159.817H319.673ZM332.118 148.837H343.83C348.785 148.837 353.177 147.83 357.007 145.804C360.915 143.712 363.974 140.745 366.209 136.915C368.445 133.007 369.556 128.444 369.556 123.216C369.556 117.987 368.445 113.346 366.209 109.516C363.974 105.686 360.915 102.758 357.007 100.732C353.177 98.6405 348.785 97.5948 343.83 97.5948H332.118V148.837Z" fill="#F5F5F5"/>
</g>
</svg>
