
<svg
        className="scale-y-100 pt-8"
        width="100%"
        height="200"
        viewBox="0 0 100 200"
        preserveAspectRatio="none"
        xmlns="http://www.w3.org/2000/svg"
      >
        <defs>
          <linearGradient id="grad-light" x1="0%" y1="0%" x2="100%" y2="0%">
            <stop stopColor="#102D3C"></stop>
            <stop offset="0.161465" stopColor="#214E81"></stop>
            <stop offset="0.363625" stopColor="#506179"></stop>
            <stop offset="0.651499" stopColor="#ED5409"></stop>
            <stop offset="1" stopColor="#FFCB67"></stop>
          </linearGradient>
          <linearGradient id="grad-dark" x1="0%" y1="0%" x2="100%" y2="0%">
            <stop stopColor="#FFCB67"></stop>
            <stop offset="0.161465" stopColor="#ED5409"></stop>
            <stop offset="0.363625" stopColor="#506179"></stop>
            <stop offset="0.651499" stopColor="#214E81"></stop>
            <stop offset="1" stopColor="#102D3C"></stop>
          </linearGradient>
          <mask id="rectanglesMask">
            <line x1="0" y1="0" x2="100" y2="0" stroke="white" strokeWidth="1"></line>
            <line x1="0" y1="10" x2="100" y2="10" stroke="white" strokeWidth="1"></line>
            <line x1="0" y1="20" x2="100" y2="20" stroke="white" strokeWidth="1.5"></line>
            <line x1="0" y1="30" x2="100" y2="30" stroke="white" strokeWidth="2"></line>
            <line x1="0" y1="40" x2="100" y2="40" stroke="white" strokeWidth="2.5"></line>
            <line x1="0" y1="50" x2="100" y2="50" stroke="white" strokeWidth="3"></line>
            <line x1="0" y1="60" x2="100" y2="60" stroke="white" strokeWidth="3.5"></line>
            <line x1="0" y1="70" x2="100" y2="70" stroke="white" strokeWidth="4"></line>
            <line x1="0" y1="80" x2="100" y2="80" stroke="white" strokeWidth="4.5"></line>
            <line x1="0" y1="90" x2="100" y2="90" stroke="white" strokeWidth="5"></line>
            <line x1="0" y1="100" x2="100" y2="100" stroke="white" strokeWidth="5.5"></line>
            <line x1="0" y1="110" x2="100" y2="110" stroke="white" strokeWidth="6"></line>
            <line x1="0" y1="120" x2="100" y2="120" stroke="white" strokeWidth="6.5"></line>
            <line x1="0" y1="130" x2="100" y2="130" stroke="white" strokeWidth="7"></line>
            <line x1="0" y1="140" x2="100" y2="140" stroke="white" strokeWidth="7.5"></line>
            <line x1="0" y1="150" x2="100" y2="150" stroke="white" strokeWidth="8"></line>
            <line x1="0" y1="160" x2="100" y2="160" stroke="white" strokeWidth="8.5"></line>
            <line x1="0" y1="170" x2="100" y2="170" stroke="white" strokeWidth="9"></line>
            <line x1="0" y1="180" x2="100" y2="180" stroke="white" strokeWidth="9.5"></line>
            <line x1="0" y1="190" x2="100" y2="190" stroke="white" strokeWidth="10"></line>
            <line x1="0" y1="200" x2="100" y2="200" stroke="white" strokeWidth="10.5"></line>
          </mask>
        </defs>
        <rect
          width="100%"
          height="100%"
          className="fill-[url(#grad-dark)]"
          mask="url(#rectanglesMask)"
        ></rect>
      </svg>